<svg width="400" height="400" viewBox="0 0 400 400" fill="none" xmlns="http://www.w3.org/2000/svg">
<rect width="400" height="400" rx="80" fill="#FB5507"/>
<path d="M164 51H147V68H164V51Z" fill="white"/>
<path d="M185 51H168V68H185V51Z" fill="white"/>
<path d="M206 51H189V68H206V51Z" fill="white"/>
<path d="M227 51H210V68H227V51Z" fill="white"/>
<path d="M249 51H232V68H249V51Z" fill="white"/>
<path d="M121 73H104V90H121V73Z" fill="white"/>
<path d="M142 73H125V90H142V73Z" fill="white"/>
<path d="M164 73H147V90H164V73Z" fill="white"/>
<path d="M185 73H168V90H185V73Z" fill="white"/>
<path d="M206 73H189V90H206V73Z" fill="white"/>
<path d="M227 73H210V90H227V73Z" fill="white"/>
<path d="M249 73H232V90H249V73Z" fill="white"/>
<path d="M270 73H253V90H270V73Z" fill="white"/>
<path d="M291 73H274V90H291V73Z" fill="white"/>
<path d="M100 94H83V111H100V94Z" fill="white"/>
<path d="M121 94H104V111H121V94Z" fill="white"/>
<path d="M142 94H125V111H142V94Z" fill="white"/>
<path d="M270 94H253V111H270V94Z" fill="white"/>
<path d="M291 94H274V111H291V94Z" fill="white"/>
<path d="M100 115H83V132H100V115Z" fill="white"/>
<path d="M121 115H104V132H121V115Z" fill="white"/>
<path d="M291 115H274V132H291V115Z" fill="white"/>
<path d="M313 115H296V132H313V115Z" fill="white"/>
<path d="M291 136H274V153H291V136Z" fill="white"/>
<path d="M313 136H296V153H313V136Z" fill="white"/>
<path d="M270 158H253V175H270V158Z" fill="white"/>
<path d="M291 158H274V175H291V158Z" fill="white"/>
<path d="M313 158H296V175H313V158Z" fill="white"/>
<path d="M164 179H147V196H164V179Z" fill="white"/>
<path d="M185 179H168V196H185V179Z" fill="white"/>
<path d="M206 179H189V196H206V179Z" fill="white"/>
<path d="M227 179H210V196H227V179Z" fill="white"/>
<path d="M249 179H232V196H249V179Z" fill="white"/>
<path d="M270 179H253V196H270V179Z" fill="white"/>
<path d="M291 179H274V196H291V179Z" fill="white"/>
<path d="M313 179H296V196H313V179Z" fill="white"/>
<path d="M121 200H104V217H121V200Z" fill="white"/>
<path d="M142 200H125V217H142V200Z" fill="white"/>
<path d="M164 200H147V217H164V200Z" fill="white"/>
<path d="M185 200H168V217H185V200Z" fill="white"/>
<path d="M206 200H189V217H206V200Z" fill="white"/>
<path d="M227 200H210V217H227V200Z" fill="white"/>
<path d="M249 200H232V217H249V200Z" fill="white"/>
<path d="M291 200H274V217H291V200Z" fill="white"/>
<path d="M313 200H296V217H313V200Z" fill="white"/>
<path d="M100 222H83V239H100V222Z" fill="white"/>
<path d="M121 222H104V239H121V222Z" fill="white"/>
<path d="M142 222H125V239H142V222Z" fill="white"/>
<path d="M291 222H274V239H291V222Z" fill="white"/>
<path d="M313 222H296V239H313V222Z" fill="white"/>
<path d="M100 243H83V260H100V243Z" fill="white"/>
<path d="M121 243H104V260H121V243Z" fill="white"/>
<path d="M291 243H274V260H291V243Z" fill="white"/>
<path d="M313 243H296V260H313V243Z" fill="white"/>
<path d="M100 264H83V281H100V264Z" fill="white"/>
<path d="M121 264H104V281H121V264Z" fill="white"/>
<path d="M291 264H274V281H291V264Z" fill="white"/>
<path d="M313 264H296V281H313V264Z" fill="white"/>
<path d="M100 285H83V302H100V285Z" fill="white"/>
<path d="M121 285H104V302H121V307Z" fill="white"/>
<path d="M270 285H253V302H270V285Z" fill="white"/>
<path d="M291 285H274V302H291V285Z" fill="white"/>
<path d="M313 285H296V302H313V285Z" fill="white"/>
<path d="M121 307H104V324H121V307Z" fill="white"/>
<path d="M142 307H125V324H142V307Z" fill="white"/>
<path d="M164 307H147V324H164V307Z" fill="white"/>
<path d="M185 307H168V324H185V307Z" fill="white"/>
<path d="M206 307H189V324H206V307Z" fill="white"/>
<path d="M227 307H210V324H227V307Z" fill="white"/>
<path d="M249 307H232V324H249V307Z" fill="white"/>
<path d="M291 307H274V324H291V307Z" fill="white"/>
<path d="M313 307H296V324H313V307Z" fill="white"/>
<path d="M334 307H317V324H334V307Z" fill="white"/>
<path d="M142 328H125V345H142V328Z" fill="white"/>
<path d="M164 328H147V345H164V328Z" fill="white"/>
<path d="M185 328H168V345H185V328Z" fill="white"/>
<path d="M206 328H189V345H206V328Z" fill="white"/>
<path d="M227 328H210V345H227V328Z" fill="white"/>
<path d="M313 328H296V345H313V328Z" fill="white"/>
<path d="M334 328H317V345H334V328Z" fill="white"/>
</svg>
